<svg xmlns="http://www.w3.org/2000/svg" viewBox="0 0 318.71 407.27"><defs><style>.cls-1{fill:none;stroke:#b45739;stroke-miterlimit:10;stroke-width:10px;}.cls-2{fill:#b45739;}.cls-3{fill:#4c545b;}</style></defs><g id="外框"><rect class="cls-1" x="5" y="5" width="308.71" height="397.27"/></g><g id="大A"><path class="cls-2" d="M298.88,282.57l-24.12,59.57c-2.47,6.09,1.88,12.8,8.28,12.8H396.45a9.11,9.11,0,0,0,9-9.24V323.87c0-5.1,0-18.36,15.52-18.36h0c16.95,0,15.84,13.26,15.84,18.36V345.7a9.11,9.11,0,0,0,9,9.24H559.08c6.41,0,10.75-6.71,8.28-12.8L525.22,238.07a8.92,8.92,0,0,0-10.09-5.49l-209.78,44.5A9,9,0,0,0,298.88,282.57Z" transform="translate(-262.46 -41.45)"/><path class="cls-2" d="M512.33,206.24l-22.18-54.76A8.92,8.92,0,0,0,480.06,146L347,174.22a9,9,0,0,0-6.47,5.49l-26.34,65c-2.78,6.85,3,14.1,10.09,12.6l181.57-38.52A9.28,9.28,0,0,0,512.33,206.24Z" transform="translate(-262.46 -41.45)"/><path class="cls-2" d="M477.26,119.65,454,62.23a8.92,8.92,0,0,0-10.09-5.49l-54,11.45a9.07,9.07,0,0,0-6.47,5.49l-27.62,68.21c-2.77,6.85,3,14.1,10.09,12.61l104.85-22.25A9.27,9.27,0,0,0,477.26,119.65Z" transform="translate(-262.46 -41.45)"/></g><g id="小A"><path class="cls-2" d="M277.54,411.74l-4.94,10.94a1.71,1.71,0,0,0,1.7,2.34h23.24a1.77,1.77,0,0,0,1.84-1.69v-4c0-.93,0-3.37,3.18-3.37h0c3.47,0,3.24,2.44,3.24,3.37v4a1.78,1.78,0,0,0,1.84,1.69h23.23a1.71,1.71,0,0,0,1.7-2.34l-8.64-19.11a1.89,1.89,0,0,0-2.07-1l-43,8.17A1.83,1.83,0,0,0,277.54,411.74Z" transform="translate(-262.46 -41.45)"/><path class="cls-2" d="M321.29,397.73l-4.55-10.05a1.86,1.86,0,0,0-2.06-1l-27.27,5.18a1.81,1.81,0,0,0-1.33,1l-5.4,11.94a1.74,1.74,0,0,0,2.07,2.31L320,400A1.68,1.68,0,0,0,321.29,397.73Z" transform="translate(-262.46 -41.45)"/><path class="cls-2" d="M314.1,381.83l-4.76-10.54a1.89,1.89,0,0,0-2.07-1l-11.06,2.11a1.8,1.8,0,0,0-1.33,1l-5.66,12.53a1.74,1.74,0,0,0,2.07,2.31l21.49-4.08A1.68,1.68,0,0,0,314.1,381.83Z" transform="translate(-262.46 -41.45)"/></g><g id="图形化文本"><path class="cls-3" d="M429.88,413.11a1.88,1.88,0,0,1,.59-1.37,227.49,227.49,0,0,0,15.69-17.23c2.7-3.26,3.8-4.86,3.8-9.6,0-3.65-2.3-6.59-5-6.59h-3.49c-2.8,0-5.09,2.94-5.09,6.59h0a1.92,1.92,0,0,1-1.92,1.92h-3a1.91,1.91,0,0,1-1.92-1.92v-1.66c0-7.81,5-14.21,11.13-14.21h5.44c6.14,0,11.13,6.4,11.13,14.21v1.21c0,6.53-.69,10.24-4.74,15.17-3.78,4.54-7.86,9.19-12,13.38a1.92,1.92,0,0,0,1.37,3.26h12.72a1.92,1.92,0,0,1,1.92,1.92v4.29a1.92,1.92,0,0,1-1.92,1.92H431.8a1.92,1.92,0,0,1-1.92-1.92Z" transform="translate(-262.46 -41.45)"/><path class="cls-3" d="M482.65,369.62c6.39,0,11.64,6.65,11.64,14.91v25c0,8.26-5.25,14.92-11.64,14.92h-6.34c-6.39,0-11.58-6.66-11.58-14.92v-25c0-8.26,5.19-14.91,11.58-14.91Zm4.4,16.57c0-3.78-2.35-6.85-5.25-6.85h-4.64c-2.9,0-5.24,3.07-5.24,6.85v21.63c0,3.78,2.34,6.85,5.24,6.85h4.64c2.9,0,5.25-3.07,5.25-6.85Z" transform="translate(-262.46 -41.45)"/><path class="cls-3" d="M502.52,413.11a1.91,1.91,0,0,1,.58-1.37,225.39,225.39,0,0,0,15.69-17.23c2.7-3.26,3.8-4.86,3.8-9.6,0-3.65-2.3-6.59-5.05-6.59h-3.49c-2.8,0-5.09,2.94-5.09,6.59h0a1.92,1.92,0,0,1-1.92,1.92h-3a1.92,1.92,0,0,1-1.92-1.92v-1.66c0-7.81,5-14.21,11.13-14.21h5.44c6.14,0,11.14,6.4,11.14,14.21v1.21c0,6.53-.7,10.24-4.75,15.17-3.77,4.54-7.86,9.19-12,13.38a1.92,1.92,0,0,0,1.37,3.26h12.72a1.92,1.92,0,0,1,1.92,1.92v4.29a1.92,1.92,0,0,1-1.92,1.92H504.44a1.92,1.92,0,0,1-1.92-1.92Z" transform="translate(-262.46 -41.45)"/><path class="cls-3" d="M561.77,394.7l-.39.58.39.51a14.55,14.55,0,0,1,2.5,4.86,23.28,23.28,0,0,1,0,14.53,13.75,13.75,0,0,1-5.69,7.81c-3.9,2.24-7.49,1.73-11.58,1.73-6,0-10.94-6.4-10.94-14.28h0a1.6,1.6,0,0,1,1.6-1.6h3.66a1.58,1.58,0,0,1,1.57,1.33,7.13,7.13,0,0,0,.26,1.17c1.05,3.58,4.79,4.29,7.34,4.1a7.72,7.72,0,0,0,5.09-1.86c1.85-1.79,2.35-5.5,1.7-8.7a5.9,5.9,0,0,0-4.59-5.06,14.65,14.65,0,0,0-4-.45h-.59a1.59,1.59,0,0,1-1.6-1.6v-5a1.59,1.59,0,0,1,1.6-1.6h.59a14.65,14.65,0,0,0,4-.45,5.63,5.63,0,0,0,2.89-1.47,7.13,7.13,0,0,0,0-9.22c-2.52-2.82-11.55-2.94-12.66,3.49a1.62,1.62,0,0,1-1.57,1.38h-3.69a1.6,1.6,0,0,1-1.6-1.6v-.07C536.06,374,542.6,369,549,369c3.15,0,3.6.06,3.65.06a17.57,17.57,0,0,1,3.09.45,11.6,11.6,0,0,1,5.25,3.27,15.3,15.3,0,0,1,3.54,6.46C566,384.91,565.32,390.61,561.77,394.7Z" transform="translate(-262.46 -41.45)"/><path class="cls-3" d="M338.63,368.88h10.61c1,0,1.75.64,2.32,1.92a5.56,5.56,0,0,1,.09.86v38.19a2,2,0,0,1-.95,1.71c-1.9,1.2-9.75,6.73-11.09,7.66s-3.39.78-3.39-2.28V371C336.22,369.8,337,369.09,338.63,368.88Zm13.7,44.49H375a2.14,2.14,0,0,1,2.14,2.14v7a2.16,2.16,0,0,1-2.15,2.16H340.9a1.77,1.77,0,0,1-.92-3.09c.06,0,2.85-2.68,11.28-7.9A2,2,0,0,1,352.33,413.37Z" transform="translate(-262.46 -41.45)"/><path class="cls-3" d="M380.42,371.69c-.71,1.34-1.69,6.13-2.93,8.37a2,2,0,0,1-1.77,1h-5.49q-3.17,0-4.17-1.68l-.11-.35v-8c0-1.06.85-1.81,2.55-2.24a2.31,2.31,0,0,1,.52-.06h9.62A2,2,0,0,1,380.42,371.69Zm38.32-2.85a3.24,3.24,0,0,1,3,1.76,1.54,1.54,0,0,1,.17.82v7.77c0,1-.76,1.63-2.28,2-.43,0-.78,0-1.06,0H404.41a2,2,0,0,0-2,2V395.8l-8,1.79s-5.95,1.24-6.32,1.29-1.13-.07-1.13-.74v-14.9a2,2,0,0,0-2-2h-5.65l-.18,0,4.58-11.29a2,2,0,0,1,1.77-1.05Zm-16.41,29.63.06.12v24.3c0,.5-.68,1.85-3.11,1.85h-9.13a3.47,3.47,0,0,1-3-1.25,1.81,1.81,0,0,1-.24-1V401.59l6.16-1.21Z" transform="translate(-262.46 -41.45)"/></g></svg>