<svg xmlns="http://www.w3.org/2000/svg" viewBox="0 0 214.99 220.11"><defs><style>.cls-1{fill:none;stroke:#b45739;stroke-miterlimit:10;stroke-width:8px;}.cls-2{fill:#b45739;}</style></defs><g id="外框"><rect class="cls-1" x="4" y="4" width="206.99" height="212.11"/></g><g id="大A"><path class="cls-2" d="M95.64,345.43l-15,37.05a5.74,5.74,0,0,0,5.15,8h70.54a5.67,5.67,0,0,0,5.58-5.75V371.12c0-3.18,0-11.43,9.66-11.43h0c10.54,0,9.84,8.25,9.84,11.43v13.57a5.67,5.67,0,0,0,5.58,5.75h70.5a5.74,5.74,0,0,0,5.15-8l-26.22-64.73a5.53,5.53,0,0,0-6.27-3.42L99.67,342A5.61,5.61,0,0,0,95.64,345.43Z" transform="translate(-63.86 -187.8)"/><path class="cls-2" d="M228.41,298l-13.8-34.06a5.55,5.55,0,0,0-6.27-3.42L125.58,278a5.62,5.62,0,0,0-4,3.41L105.17,321.9a5.69,5.69,0,0,0,6.28,7.84l112.93-23.95A5.78,5.78,0,0,0,228.41,298Z" transform="translate(-63.86 -187.8)"/><path class="cls-2" d="M206.6,244.09l-14.47-35.71a5.53,5.53,0,0,0-6.27-3.42l-33.58,7.12a5.61,5.61,0,0,0-4,3.42l-17.18,42.42a5.7,5.7,0,0,0,6.28,7.84l65.21-13.83A5.78,5.78,0,0,0,206.6,244.09Z" transform="translate(-63.86 -187.8)"/></g></svg>