<svg xmlns="http://www.w3.org/2000/svg" viewBox="0 0 705.08 220.11"><defs><style>.cls-1{fill:none;stroke:#b45739;stroke-miterlimit:10;stroke-width:8px;}.cls-2{fill:#b45739;}.cls-3{fill:#4c545b;}</style></defs><g id="外框"><rect class="cls-1" x="4" y="4" width="206.99" height="212.11"/></g><g id="大A"><path class="cls-2" d="M95.64,345.43l-15,37.05a5.74,5.74,0,0,0,5.15,8h70.54a5.67,5.67,0,0,0,5.58-5.75V371.12c0-3.18,0-11.43,9.66-11.43h0c10.54,0,9.84,8.25,9.84,11.43v13.57a5.67,5.67,0,0,0,5.58,5.75h70.5a5.74,5.74,0,0,0,5.15-8l-26.22-64.73a5.53,5.53,0,0,0-6.27-3.42L99.67,342A5.61,5.61,0,0,0,95.64,345.43Z" transform="translate(-63.86 -187.8)"/><path class="cls-2" d="M228.41,298l-13.8-34.06a5.55,5.55,0,0,0-6.27-3.42L125.58,278a5.62,5.62,0,0,0-4,3.41L105.17,321.9a5.69,5.69,0,0,0,6.28,7.84l112.93-23.95A5.78,5.78,0,0,0,228.41,298Z" transform="translate(-63.86 -187.8)"/><path class="cls-2" d="M206.6,244.09l-14.47-35.71a5.53,5.53,0,0,0-6.27-3.42l-33.58,7.12a5.61,5.61,0,0,0-4,3.42l-17.18,42.42a5.7,5.7,0,0,0,6.28,7.84l65.21-13.83A5.78,5.78,0,0,0,206.6,244.09Z" transform="translate(-63.86 -187.8)"/></g><g id="图层_13" data-name="图层 13"><g id="小A"><path class="cls-2" d="M310.93,265.5l-6.5,14.37a2.26,2.26,0,0,0,2.23,3.09h30.55a2.33,2.33,0,0,0,2.41-2.23v-5.27c0-1.23,0-4.43,4.18-4.43h0c4.57,0,4.27,3.2,4.27,4.43v5.27a2.33,2.33,0,0,0,2.41,2.23H381a2.26,2.26,0,0,0,2.23-3.09l-11.36-25.1a2.44,2.44,0,0,0-2.71-1.33l-56.5,10.74A2.36,2.36,0,0,0,310.93,265.5Z" transform="translate(-63.86 -187.8)"/><path class="cls-2" d="M368.41,247.09l-6-13.21a2.46,2.46,0,0,0-2.72-1.33l-35.83,6.81a2.39,2.39,0,0,0-1.74,1.33l-7.1,15.69a2.3,2.3,0,0,0,2.72,3l48.9-9.29A2.21,2.21,0,0,0,368.41,247.09Z" transform="translate(-63.86 -187.8)"/><path class="cls-2" d="M359,226.2l-6.26-13.85A2.48,2.48,0,0,0,350,211l-14.54,2.76a2.39,2.39,0,0,0-1.74,1.33l-7.44,16.45a2.29,2.29,0,0,0,2.72,3l28.24-5.36A2.21,2.21,0,0,0,359,226.2Z" transform="translate(-63.86 -187.8)"/></g><path class="cls-3" d="M403.56,250.32l14.13-12.94h40.56v45.15H437V252h-12.1v30.54H403.56Z" transform="translate(-63.86 -187.8)"/><path class="cls-3" d="M470.64,250.32l14.13-12.94h39.79V252H491.93v15.93h33.79l-4.55,14.61H470.64Z" transform="translate(-63.86 -187.8)"/><path class="cls-3" d="M538.11,206H559.4v19.44H538.11Zm0,31.41H559.4v45.15H538.11Z" transform="translate(-63.86 -187.8)"/><path class="cls-3" d="M571.79,282.44V250.23L586,237.38h42.4v16.28l-14.23,12.85h-21V270h35.72l-4.46,12.5ZM608.19,254v-4.13h-15V254Z" transform="translate(-63.86 -187.8)"/><path class="cls-3" d="M640.62,250.32l14.13-12.94h40.56v45.15H674V252h-12.1v30.54H640.62Z" transform="translate(-63.86 -187.8)"/><path class="cls-3" d="M718.15,252H707.7V237.38h10.45V219h21.3v18.39H759.2V252H739.45v15.93H759.2l-5.13,14.61H718.15Z" transform="translate(-63.86 -187.8)"/><path class="cls-2" d="M306.88,311.57h17.43l5.5,63.8h.44v-63.8h9.24v76.55h-17L317,324h-.44v64.15h-9.68Z" transform="translate(-63.86 -187.8)"/><path class="cls-3" d="M342.84,375.25l3.5-7h5.24v-1.92h-7.44v-6.77h12.72v17.76h.91l-.58,6.81H342.84Zm8.74,2.06v-3.22h-3.72v3.22Z" transform="translate(-63.86 -187.8)"/><path class="cls-3" d="M362.42,367.47h-2.59v-8h2.59v-10h5.28v10h4.9v8h-4.9v8.69h4.9l-1.27,8h-8.91Z" transform="translate(-63.86 -187.8)"/><path class="cls-3" d="M374.83,359.5h5.31v16.66h3V359.5h5.31v17.62l-3.53,7H374.83Z" transform="translate(-63.86 -187.8)"/><path class="cls-3" d="M390.65,359.5h5.28v6.62l5.9-6.62,2.47,8.93-8.37,9.36v6.33h-5.28Z" transform="translate(-63.86 -187.8)"/><path class="cls-3" d="M405.5,375.25l3.51-7h5.23v-1.92H406.8v-6.77h12.72v17.76h.91l-.58,6.81H405.5Zm8.74,2.06v-3.22h-3.72v3.22Z" transform="translate(-63.86 -187.8)"/><path class="cls-3" d="M422.64,342.37h5.3v41.75h-5.3Z" transform="translate(-63.86 -187.8)"/><path class="cls-2" d="M447.48,311.57h9.68v61.95H472.6l-2.29,14.6H447.48Z" transform="translate(-63.86 -187.8)"/><path class="cls-3" d="M473.75,375.25l3.51-7h5.23v-1.92h-7.44v-6.77h12.72v17.76h.91l-.57,6.81H473.75Zm8.74,2.06v-3.22h-3.72v3.22Z" transform="translate(-63.86 -187.8)"/><path class="cls-3" d="M490.75,366.56l3.5-7.06H504.3v24.62H499V367.47h-3v16.65h-5.27Z" transform="translate(-63.86 -187.8)"/><path class="cls-3" d="M508.19,390.12h6.7V384h-8.35V366.41l3.5-7h10.13V391l-3.5,7H506.8Zm6.7-14.06v-8.69h-3.07v8.69Z" transform="translate(-63.86 -187.8)"/><path class="cls-3" d="M522.45,359.5h5.3v16.66h3V359.5H536v17.62l-3.53,7h-10Z" transform="translate(-63.86 -187.8)"/><path class="cls-3" d="M538.1,375.25l3.5-7h5.23v-1.92h-7.44v-6.77h12.72v17.76H553l-.57,6.81H538.1Zm8.73,2.06v-3.22h-3.72v3.22Z" transform="translate(-63.86 -187.8)"/><path class="cls-3" d="M556.74,390.12h6.7V384h-8.35V366.41l3.5-7h10.13V391l-3.5,7h-9.87Zm6.7-14.06v-8.69h-3.07v8.69Z" transform="translate(-63.86 -187.8)"/><path class="cls-3" d="M570.83,384.08V366.51l3.53-7h10.51v8.88l-3.53,7h-5.2v1.92H585l-1.1,6.81Zm9-15.51v-2.25h-3.72v2.25Z" transform="translate(-63.86 -187.8)"/><path class="cls-2" d="M603.94,324.5l6.47-12.93h25V350L628.94,363H613.67v25.16h-9.73Zm21.74,23.85V326.17h-12v22.18Z" transform="translate(-63.86 -187.8)"/><path class="cls-3" d="M638,359.5h5.28v6.62l5.91-6.62,2.47,8.93-8.38,9.36v6.33H638Z" transform="translate(-63.86 -187.8)"/><path class="cls-3" d="M652.9,366.56l3.5-7.06h10.13v17.62l-3.5,7H652.9Zm8.35,9.6v-8.69h-3.07v8.69Z" transform="translate(-63.86 -187.8)"/><path class="cls-3" d="M668.59,366.56l3.51-7.06H682v8h-8.09v8.69h8.38l-1.13,8H668.59Z" transform="translate(-63.86 -187.8)"/><path class="cls-3" d="M684.31,384.08V366.51l3.53-7h10.51v8.88l-3.52,7h-5.21v1.92h8.85l-1.1,6.81Zm9-15.51v-2.25h-3.72v2.25Z" transform="translate(-63.86 -187.8)"/><path class="cls-3" d="M701.79,377.31h7.05v-2.69h-8.3v-8.11l3.5-7h10.08v6.82h-8.59v2.45h8.59v8.3l-3.5,7-9.94,0Z" transform="translate(-63.86 -187.8)"/><path class="cls-3" d="M717.43,377.31h7.06v-2.69h-8.3v-8.11l3.5-7h10.08v6.82h-8.59v2.45h8.59v8.3l-3.5,7-9.94,0Z" transform="translate(-63.86 -187.8)"/><path class="cls-3" d="M732,342.37h5.28V353H732Zm0,17.13h5.28v24.62H732Z" transform="translate(-63.86 -187.8)"/><path class="cls-3" d="M739.51,366.56,743,359.5h10.05v24.62h-5.28V367.47h-3v16.65h-5.28Z" transform="translate(-63.86 -187.8)"/><path class="cls-3" d="M757,390.12h6.7V384H755.3V366.41l3.51-7h10.13V391l-3.51,7h-9.86Zm6.7-14.06v-8.69h-3.08v8.69Z" transform="translate(-63.86 -187.8)"/></g></svg>