<svg xmlns="http://www.w3.org/2000/svg" viewBox="0 0 1312.74 225.84"><defs><style>.cls-1{fill:none;stroke:#b45739;stroke-miterlimit:10;stroke-width:8px;}.cls-2{fill:#b45739;}.cls-3{fill:#4c545b;}</style></defs><g id="外框"><rect class="cls-1" x="4" y="4" width="206.99" height="212.11"/></g><g id="大A"><path class="cls-2" d="M95.64,345.43l-15,37.05a5.74,5.74,0,0,0,5.15,8h70.54a5.67,5.67,0,0,0,5.58-5.75V371.12c0-3.18,0-11.43,9.66-11.43h0c10.54,0,9.84,8.25,9.84,11.43v13.57a5.67,5.67,0,0,0,5.58,5.75h70.5a5.74,5.74,0,0,0,5.15-8l-26.22-64.73a5.53,5.53,0,0,0-6.27-3.42L99.67,342A5.61,5.61,0,0,0,95.64,345.43Z" transform="translate(-63.86 -187.8)"/><path class="cls-2" d="M228.41,298l-13.8-34.06a5.55,5.55,0,0,0-6.27-3.42L125.58,278a5.62,5.62,0,0,0-4,3.41L105.17,321.9a5.69,5.69,0,0,0,6.28,7.84l112.93-23.95A5.78,5.78,0,0,0,228.41,298Z" transform="translate(-63.86 -187.8)"/><path class="cls-2" d="M206.6,244.09l-14.47-35.71a5.53,5.53,0,0,0-6.27-3.42l-33.58,7.12a5.61,5.61,0,0,0-4,3.42l-17.18,42.42a5.7,5.7,0,0,0,6.28,7.84l65.21-13.83A5.78,5.78,0,0,0,206.6,244.09Z" transform="translate(-63.86 -187.8)"/></g><g id="图层_13" data-name="图层 13"><g id="小A"><path class="cls-2" d="M310.93,265.5l-6.5,14.37a2.26,2.26,0,0,0,2.23,3.09h30.55a2.33,2.33,0,0,0,2.41-2.23v-5.27c0-1.23,0-4.43,4.18-4.43h0c4.57,0,4.27,3.2,4.27,4.43v5.27a2.33,2.33,0,0,0,2.41,2.23H381a2.26,2.26,0,0,0,2.23-3.09l-11.36-25.1a2.44,2.44,0,0,0-2.71-1.33l-56.5,10.74A2.36,2.36,0,0,0,310.93,265.5Z" transform="translate(-63.86 -187.8)"/><path class="cls-2" d="M368.41,247.09l-6-13.21a2.46,2.46,0,0,0-2.72-1.33l-35.83,6.81a2.39,2.39,0,0,0-1.74,1.33l-7.1,15.69a2.3,2.3,0,0,0,2.72,3l48.9-9.29A2.21,2.21,0,0,0,368.41,247.09Z" transform="translate(-63.86 -187.8)"/><path class="cls-2" d="M359,226.2l-6.26-13.85A2.48,2.48,0,0,0,350,211l-14.54,2.76a2.39,2.39,0,0,0-1.74,1.33l-7.44,16.45a2.29,2.29,0,0,0,2.72,3l28.24-5.36A2.21,2.21,0,0,0,359,226.2Z" transform="translate(-63.86 -187.8)"/></g><path class="cls-3" d="M403.5,250.32l12.85-12.94h36.87v45.15H433.86V252h-11v30.54H403.5Z" transform="translate(-63.86 -187.8)"/><path class="cls-3" d="M462.29,250.32l12.85-12.94H511.3V252H481.65v15.93h30.71l-4.14,14.61H462.29Z" transform="translate(-63.86 -187.8)"/><path class="cls-3" d="M521.42,206h19.36v19.44H521.42Zm0,31.41h19.36v45.15H521.42Z" transform="translate(-63.86 -187.8)"/><path class="cls-3" d="M549.85,282.44V250.23l12.93-12.85h38.55v16.28l-12.94,12.85h-19.1V270h32.48l-4,12.5ZM582.93,254v-4.13H569.29V254Z" transform="translate(-63.86 -187.8)"/><path class="cls-3" d="M610.21,250.32l12.85-12.94h36.87v45.15H640.57V252h-11v30.54H610.21Z" transform="translate(-63.86 -187.8)"/><path class="cls-3" d="M678.5,252H669V237.38h9.5V219h19.36v18.39h17.95V252H697.86v15.93h17.95l-4.66,14.61H678.5Z" transform="translate(-63.86 -187.8)"/><path class="cls-2" d="M820.35,206H855.2l11,63.8h.88V206h18.48v76.56h-34l-11-64.16h-.88v64.16H820.35Z" transform="translate(-63.86 -187.8)"/><path class="cls-3" d="M895.06,266.25l12.85-12.85H927.1v-3.52H899.82V237.47h46.64V270h3.34l-2.11,12.5H895.06Zm32,3.78v-5.9H913.46V270Z" transform="translate(-63.86 -187.8)"/><path class="cls-3" d="M967.75,252h-9.5V237.38h9.5V219h19.36v18.39h17.95V252H987.11v15.93h17.95l-4.66,14.61H967.75Z" transform="translate(-63.86 -187.8)"/><path class="cls-3" d="M1014.13,237.38h19.44v30.54h10.92V237.38h19.44v32.3L1051,282.53h-36.87Z" transform="translate(-63.86 -187.8)"/><path class="cls-3" d="M1073,237.38h19.36v12.15L1114,237.38l9.07,16.37-30.71,17.16v11.62H1073Z" transform="translate(-63.86 -187.8)"/><path class="cls-3" d="M1128.35,266.25l12.85-12.85h19.18v-3.52H1133.1V237.47h46.64V270h3.34l-2.11,12.5h-52.62Zm32,3.78v-5.9h-13.64V270Z" transform="translate(-63.86 -187.8)"/><path class="cls-3" d="M1192.06,206h19.45v76.56h-19.45Z" transform="translate(-63.86 -187.8)"/><path class="cls-2" d="M309.52,311.57h19.36v61.95h30.89l-4.57,14.6H309.52Z" transform="translate(-63.86 -187.8)"/><path class="cls-3" d="M364.88,371.84,377.72,359h19.19v-3.52H369.63V343.07h46.64v32.56h3.34l-2.11,12.49H364.88Zm32,3.79v-5.9H383.27v5.9Z" transform="translate(-63.86 -187.8)"/><path class="cls-3" d="M428.06,355.92,440.91,343h36.87v45.14H458.42V357.59h-11v30.53H428.06Z" transform="translate(-63.86 -187.8)"/><path class="cls-3" d="M492.91,399.12h24.56V388H486.84v-32.3l12.85-12.84h37.14v58L524,413.65H487.81Zm24.56-25.78V357.41H506.2v15.93Z" transform="translate(-63.86 -187.8)"/><path class="cls-3" d="M546.06,343h19.45v30.54h10.91V343h19.45v32.3l-12.93,12.84H546.06Z" transform="translate(-63.86 -187.8)"/><path class="cls-3" d="M604.32,371.84,617.17,359h19.18v-3.52H609.07V343.07h46.64v32.56h3.35l-2.12,12.49H604.32Zm32,3.79v-5.9H622.71v5.9Z" transform="translate(-63.86 -187.8)"/><path class="cls-3" d="M673.58,399.12h24.55V388H667.5v-32.3l12.85-12.84h37.14v58l-12.85,12.85H668.47Zm24.55-25.78V357.41H686.86v15.93Z" transform="translate(-63.86 -187.8)"/><path class="cls-3" d="M726.11,388V355.83L739.05,343h38.54v16.28l-12.94,12.85H745.56v3.52H778l-4,12.49Zm33.09-28.43v-4.13H745.56v4.13Z" transform="translate(-63.86 -187.8)"/><path class="cls-2" d="M818.33,324.5l12.94-12.93h50V350L868.32,363H837.78v25.16H818.33Zm43.47,23.85V326.17h-24v22.18Z" transform="translate(-63.86 -187.8)"/><path class="cls-3" d="M889.61,343H909v12.14L930.62,343l9.06,16.37L909,376.51v11.61H889.61Z" transform="translate(-63.86 -187.8)"/><path class="cls-3" d="M945,355.92,957.81,343H995v32.3L982.1,388.12H945Zm30.62,17.6V357.59H964.32v15.93Z" transform="translate(-63.86 -187.8)"/><path class="cls-3" d="M1003.39,355.92,1016.24,343h36.17v14.61h-29.66v15.93h30.71l-4.13,14.6h-45.94Z" transform="translate(-63.86 -187.8)"/><path class="cls-3" d="M1061.91,388V355.83L1074.85,343h38.54v16.28l-12.93,12.85h-19.1v3.52h32.47l-4,12.49ZM1095,359.61v-4.13h-13.64v4.13Z" transform="translate(-63.86 -187.8)"/><path class="cls-3" d="M1126.85,375.63h25.88V370.7h-30.45V355.83L1135.13,343h37v12.5h-31.51V360h31.51v15.22L1159.24,388l-36.43.08Z" transform="translate(-63.86 -187.8)"/><path class="cls-3" d="M1185.11,375.63H1211V370.7h-30.45V355.83L1193.38,343h37v12.5h-31.5V360h31.5v15.22L1217.49,388l-36.43.08Z" transform="translate(-63.86 -187.8)"/><path class="cls-3" d="M1239.4,311.57h19.36V331H1239.4Zm0,31.41h19.36v45.14H1239.4Z" transform="translate(-63.86 -187.8)"/><path class="cls-3" d="M1267.83,355.92,1280.68,343h36.87v45.14h-19.36V357.59h-11v30.53h-19.36Z" transform="translate(-63.86 -187.8)"/><path class="cls-3" d="M1332.68,399.12h24.56V388h-30.63v-32.3l12.85-12.84h37.14v58l-12.85,12.85h-36.17Zm24.56-25.78V357.41H1346v15.93Z" transform="translate(-63.86 -187.8)"/></g></svg>