<?xml version="1.0" encoding="UTF-8"?>
<svg id="_图层_1" data-name="图层 1" xmlns="http://www.w3.org/2000/svg" viewBox="0 0 255.39 95.18">
  <defs>
    <style>
      .cls-1 {
        fill: #fff;
      }

      .cls-2, .cls-3 {
        fill: #bd1a20;
      }

      .cls-4, .cls-5 {
        fill: #b39660;
      }

      .cls-5 {
        stroke: #b39660;
        stroke-width: .54px;
      }

      .cls-3 {
        fill-rule: evenodd;
      }
    </style>
  </defs>
  <g>
    <g>
      <path class="cls-2" d="m163.29,34.66c-.89-.89-2.4-.87-4.89-.86h-1.27s-31.99,0-31.99,0v38.78s1.64,0,1.64,0c2.49.03,3.4-.33,3.72-.64h.01s0-.02,0-.02h0s.01-.01.01-.01c.52-.37.77-1.37.75-3v-33.05h26.64v35.37l6.15,2.4v-34.6c.02-2,.02-3.57-.78-4.38Zm-15.67,30.26h7.26v-1.72h-7.26v-4.5h7.26v-1.71h-20.57v1.71h7.16v4.5h-7.07v1.72h7.07v4.5h-7.7v1.67h22v-1.67h-8.16v-4.5Zm-9-27.37v3.56h-4.4v13.98h16.69c.07,0,.16,0,.16,0,2.51-.12,3.82-1.34,3.99-3.76v-10.23h-10.19v-3.56h-6.24Zm10.29,15.09c-.06.41-.36.67-.82.73h-.02s0,0,0,0h-7.7v-4.66h8.54v3.93Zm0-9.81v4.34h-8.54v-4.34h8.54Z"/>
      <path class="cls-2" d="m111.08,41.7h0s0,0,0,0h0c-.21-.21-.8-.45-2.43-.43h-19.45v1.82h16.02v3.02l-4.89,7.67-4.9-7.62h-6.23l8.03,12.48-7.95,12.47h6.31l4.81-7.54,4.86,7.54h6.23l-7.99-12.41,8.08-12.68v-2.35c.02-1.07-.15-1.73-.49-1.97h0Zm8.02-7.05c-.88-.89-2.39-.88-4.88-.86h-1.27s-31.9,0-31.9,0v38.8s1.64,0,1.64,0c2.48.04,3.39-.33,3.71-.63l.02-.02h0s.01-.02.01-.02c.52-.37.77-1.38.74-3v-33.05h26.57v35.37l6.13,2.4v-34.6c.02-2,.02-3.59-.78-4.39Z"/>
      <path class="cls-2" d="m174.02,33.98l-7,18.19s2.14.33,4.2-.28v20.79h6.29v-30.62c1.53-4.09,2.82-8.07,2.82-8.07h-6.32Zm18.1,14.7h17.32v-1.69h-16.66c.79-1.94,1.54-3.68,2.25-5.23h12.8v-1.69h-12.03c1.12-2.48,2.08-4.57,2.9-6.26h-7.98c-1.13,2.32-2.12,4.4-2.97,6.26h-7.24v1.69h6.49c-.92,2.03-1.67,3.77-2.27,5.23h-5.3v1.69h4.65c-.63,1.64-.95,2.86-.95,3.65-.1,2.15,1.56,3.17,4.98,3.09h10.88c1.4-.04,2.05.29,1.95.99-.1.41-.08.38-.21.86-.06.23-.33.7-.4.94l-4.15,6.66-3.57-3.61h-8.35l11.35,11.43h8.32l-3.31-3.34,5.62-9.01c.38-.56.79-1.18,1.17-1.88l.13-.21h-.02c.66-1.27.72-2.3.15-3.1-.61-.82-1.73-1.23-3.37-1.25h-10.86c-1.77.05-2.6-.41-2.48-1.39.04-.68.42-1.96,1.13-3.81Z"/>
      <path class="cls-1" d="m119.93,36.82s-.01-.08-.01-.12v.24s.01-.08.01-.12Z"/>
      <path class="cls-1" d="m116.91,33.8s-.08,0-.12.01h.24s-.08-.01-.12-.01Z"/>
      <path class="cls-2" d="m244.4,56.38v-3.35h3.53c2.53-.12,3.84-1.38,4.01-3.85v-8.33h2.62v-1.68h-2.62v-5.22h-6.19v5.22h-8.61v-5.22h-6.19v5.22h-2.25v1.68h2.25v12.18h7.54v3.35h-10.62v1.68h10.62v14.62s1.58,0,1.58,0c2.39.03,3.26-.32,3.57-.62h.01s0-.02,0-.02h0s.01-.02.01-.02c.5-.36.74-1.34.72-2.93v-11.04h10.98v-1.68h-10.98Zm-7.25-15.53h8.61v4.06h-8.6v-2.24h0v-1.81Zm0,10.43v-4.78h8.6v4.03c-.07.42-.37.69-.82.75h-.02s0,0,0,0h-7.76Zm-8.2,20.87h1.3c1.07,0,2.33-.46,2.8-1.03.68-.82,1.19-2.56,1.41-3.93.47-2.91.87-6.92.87-6.92h-4.86l-1.52,11.87Zm18.66-11.87s.4,4.01.87,6.92c.22,1.37.73,3.11,1.41,3.93.48.57,1.73,1.03,2.8,1.03h1.3l-1.52-11.87h-4.86Zm-24.69,3.96c1.13-1.95,2.49-4.35,4.08-7.19v-12.56c.01.28.02.56.01.88v-2.92h1.43v-1.46h-1.42v-.05h-.01v-7.02h-5.55v7.07h-2.45v-7.07h-5.53v7.07h-1.67v1.46h1.67v14.6c1.17,2.21,2.47,4.59,3.88,7.15-2.77,4.71-4.44,7.35-5.27,8.54h5.66c.19-.26,1.9-2.98,2.4-3.81.33.54,2.02,3.39,2.25,3.8h5.64c-.55-.91-1.28-2.12-2.8-4.67-.82-1.31-1.58-2.59-2.3-3.82Zm-1.49-7.33c-.13.22-.36.62-.67,1.2-.25.45-.45.8-.58,1.05-.4-.76-.8-1.51-1.18-2.25v-14.46h2.43v14.46Z"/>
    </g>
    <g>
      <path class="cls-5" d="m81.58,79.52c.89-.14,2.06-.26,3.55-.26,1.83,0,3.17.4,4.02,1.13.76.65,1.25,1.64,1.25,2.85s-.38,2.2-1.11,2.91c-1,.99-2.57,1.49-4.38,1.49-.55,0-1.06-.02-1.49-.12v5.45h-1.85v-13.44Zm1.85,6.56c.4.1.91.14,1.53.14,2.23,0,3.59-1.05,3.59-2.89s-1.36-2.69-3.38-2.69c-.81,0-1.42.06-1.74.14v5.29Z"/>
      <path class="cls-5" d="m97.12,79.36v5.69h6.93v-5.69h1.87v13.61h-1.87v-6.38h-6.93v6.38h-1.87v-13.61h1.87Z"/>
      <path class="cls-5" d="m123.75,86.02c0,4.66-3,7.17-6.65,7.17s-6.44-2.81-6.44-6.92c0-4.32,2.81-7.15,6.63-7.15s6.46,2.85,6.46,6.9Zm-11.14.2c0,2.93,1.66,5.53,4.59,5.53s4.59-2.56,4.59-5.65c0-2.73-1.49-5.55-4.57-5.55s-4.61,2.71-4.61,5.67Z"/>
      <path class="cls-5" d="m135.93,86.58h-5.55v4.91h6.21v1.47h-8.08v-13.61h7.76v1.47h-5.89v4.3h5.55v1.45Z"/>
      <path class="cls-5" d="m141.37,92.96v-13.61h2.04l4.57,6.88c1.04,1.59,1.89,3.03,2.55,4.42l.06-.02c-.17-1.82-.21-3.47-.21-5.59v-5.69h1.74v13.61h-1.87l-4.55-6.9c-1-1.51-1.96-3.07-2.66-4.54l-.06.02c.11,1.72.13,3.35.13,5.61v5.81h-1.74Z"/>
      <path class="cls-5" d="m159.59,79.36v13.61h-1.87v-13.61h1.87Z"/>
      <path class="cls-5" d="m173.04,92.96l-1.85-3.01c-.74-1.15-1.19-1.9-1.64-2.68h-.04c-.4.79-.83,1.51-1.55,2.71l-1.72,2.99h-2.13l4.38-6.88-4.21-6.72h2.15l1.89,3.19c.53.89.93,1.58,1.32,2.3h.06c.4-.81.76-1.43,1.3-2.3l1.93-3.19h2.15l-4.36,6.62,4.46,6.98h-2.15Z"/>
      <path class="cls-5" d="m198.68,86.99c-.11-1.9-.23-4.2-.23-5.87h-.04c-.51,1.57-1.08,3.29-1.81,5.17l-2.53,6.6h-1.4l-2.34-6.48c-.68-1.94-1.23-3.67-1.64-5.29h-.04c-.04,1.7-.15,3.96-.28,6.02l-.38,5.83h-1.76l1-13.61h2.36l2.44,6.58c.6,1.68,1.06,3.17,1.45,4.58h.04c.38-1.37.89-2.87,1.53-4.58l2.55-6.58h2.36l.89,13.61h-1.83l-.34-5.98Z"/>
      <path class="cls-5" d="m213.47,86.58h-5.55v4.91h6.21v1.47h-8.08v-13.61h7.76v1.47h-5.89v4.3h5.55v1.45Z"/>
      <path class="cls-5" d="m218.91,79.56c1.13-.18,2.47-.3,3.93-.3,2.66,0,4.55.61,5.8,1.7,1.3,1.11,2.04,2.69,2.04,4.89s-.74,4.04-2.06,5.29c-1.36,1.27-3.57,1.96-6.36,1.96-1.34,0-2.42-.06-3.36-.16v-13.36Zm1.85,12.03c.47.06,1.15.08,1.87.08,3.97,0,6.1-2.1,6.1-5.77.02-3.21-1.89-5.25-5.8-5.25-.96,0-1.68.08-2.17.18v10.76Z"/>
      <path class="cls-5" d="m237.3,79.36v13.61h-1.87v-13.61h1.87Z"/>
      <path class="cls-5" d="m245.23,88.68l-1.49,4.28h-1.91l4.89-13.61h2.21l4.89,13.61h-1.98l-1.53-4.28h-5.08Zm4.72-1.37l-1.42-3.92c-.32-.89-.53-1.7-.74-2.48h-.04c-.21.79-.42,1.63-.72,2.46l-1.4,3.94h4.34Z"/>
    </g>
  </g>
  <g>
    <path class="cls-4" d="m35.65,58.56c7.48,5.59,6.29,15.08.48,19.8-5.07,4.12-11.52,5.33-18.08,4.21-11.37-1.95-23.02-14.95-15.85-33.76,6.15-16.14,33.45-26.66,51.63-11.21-16.89-9.78-40.97,3.53-39.39,20.86,1.8,19.86,29.39,15.49,21.2.1Z"/>
    <path class="cls-3" d="m22.28,0s-8.97,22.58,16.2,26.35c13.81,2.07,15.24,7.65,15.76,10.33,0,0,1.76-8.75-12.07-15.97C29.27,14,22.5,11.11,22.28,0Z"/>
    <path class="cls-3" d="m47.04,91.37c9.62-4.5,16.41-16.02,15.84-26.59-1.1-20.28-20.78-24.63-30.61-19.16-9.83,5.48-9.5,17.32-1.03,21.55-6.23-4.79-1.72-14.73,7.21-13.34,15.88,2.49,15.37,31.65-8.51,34.51-19.26,2.3-28.66-11.41-28.66-11.41,4.43,10.93,22.83,25.17,45.77,14.44Z"/>
  </g>
</svg>