<?xml version="1.0" encoding="UTF-8"?>
<svg xmlns="http://www.w3.org/2000/svg" viewBox="0 0 517.27 408.79">
  <defs>
    <style>
      .cls-1 {
        fill: none;
        stroke: #b4573a;
        stroke-miterlimit: 10;
        stroke-width: 10px;
      }

      .cls-2 {
        fill: #4c555b;
      }

      .cls-2, .cls-3, .cls-4 {
        stroke-width: 0px;
      }

      .cls-3 {
        fill: #4d545b;
      }

      .cls-4 {
        fill: #b4573a;
      }
    </style>
  </defs>
  <g id="_外框" data-name="外框">
    <rect class="cls-1" x="176.27" y="5" width="308.71" height="397.27"/>
  </g>
  <g id="_大A" data-name="大A">
    <path class="cls-4" d="m207.7,241.13l-24.12,59.57c-2.46,6.09,1.88,12.79,8.28,12.79h113.41c4.95,0,8.97-4.14,8.97-9.24v-21.82c0-5.1-.03-18.36,15.52-18.36h0c16.94,0,15.83,13.26,15.83,18.36v21.82c0,5.1,4.02,9.24,8.97,9.24h113.34c6.4,0,10.74-6.71,8.28-12.79l-42.15-104.07c-1.65-4.08-5.88-6.38-10.09-5.49l-209.78,44.5c-2.91.62-5.33,2.67-6.47,5.49Z"/>
    <path class="cls-4" d="m421.14,164.79l-22.17-54.76c-1.65-4.08-5.88-6.38-10.09-5.49l-133.05,28.23c-2.91.62-5.33,2.67-6.47,5.49l-26.34,65.05c-2.77,6.85,3.03,14.1,10.09,12.6l181.57-38.52c5.53-1.17,8.64-7.24,6.47-12.6Z"/>
    <path class="cls-4" d="m386.08,78.2l-23.25-57.42c-1.65-4.08-5.88-6.38-10.09-5.49l-53.98,11.45c-2.91.62-5.33,2.67-6.47,5.49l-27.62,68.21c-2.77,6.85,3.03,14.1,10.09,12.6l104.85-22.24c5.53-1.17,8.64-7.24,6.47-12.6Z"/>
  </g>
  <g id="_小A" data-name="小A">
    <path class="cls-4" d="m188.36,370.29l-4.94,10.94c-.51,1.12.38,2.35,1.7,2.35h23.24c1.02,0,1.84-.76,1.84-1.7v-4.01c0-.94,0-3.37,3.18-3.37h0c3.47,0,3.24,2.43,3.24,3.37v4.01c0,.94.82,1.7,1.84,1.7h23.23c1.31,0,2.2-1.23,1.7-2.35l-8.64-19.1c-.34-.75-1.21-1.17-2.07-1.01l-42.99,8.17c-.6.11-1.09.49-1.33,1.01Z"/>
    <path class="cls-4" d="m232.1,356.28l-4.54-10.05c-.34-.75-1.21-1.17-2.07-1.01l-27.27,5.18c-.6.11-1.09.49-1.33,1.01l-5.4,11.94c-.57,1.26.62,2.59,2.07,2.31l37.21-7.07c1.13-.22,1.77-1.33,1.33-2.31Z"/>
    <path class="cls-4" d="m224.91,340.39l-4.77-10.54c-.34-.75-1.21-1.17-2.07-1.01l-11.06,2.1c-.6.11-1.09.49-1.33,1.01l-5.66,12.52c-.57,1.26.62,2.59,2.07,2.31l21.49-4.08c1.13-.22,1.77-1.33,1.33-2.31Z"/>
  </g>
  <g id="_图形化文本" data-name="图形化文本">
    <g>
      <path class="cls-2" d="m338.7,370.85c5.84-5.57,11.33-11.9,16.28-17.79,2.7-3.26,3.79-4.86,3.79-9.6,0-3.65-2.3-6.59-5.04-6.59h-3.5c-2.8,0-5.09,2.94-5.09,6.59v1.92h-6.84v-3.58c0-7.81,4.99-14.21,11.13-14.21h5.44c6.14,0,11.13,6.4,11.13,14.21v1.22c0,6.53-.7,10.24-4.74,15.17-4.79,5.76-10.08,11.71-15.38,16.64h19.37v8.13h-26.56v-12.09Z"/>
      <path class="cls-2" d="m391.47,328.17c6.39,0,11.63,6.66,11.63,14.91v24.96c0,8.26-5.24,14.91-11.63,14.91h-6.34c-6.39,0-11.58-6.66-11.58-14.91v-24.96c0-8.26,5.19-14.91,11.58-14.91h6.34Zm4.39,16.58c0-3.78-2.35-6.85-5.24-6.85h-4.64c-2.9,0-5.24,3.07-5.24,6.85v21.63c0,3.78,2.35,6.85,5.24,6.85h4.64c2.9,0,5.24-3.07,5.24-6.85v-21.63Z"/>
      <path class="cls-2" d="m411.33,370.85c5.84-5.57,11.33-11.9,16.28-17.79,2.7-3.26,3.79-4.86,3.79-9.6,0-3.65-2.3-6.59-5.04-6.59h-3.5c-2.8,0-5.09,2.94-5.09,6.59v1.92h-6.84v-3.58c0-7.81,4.99-14.21,11.13-14.21h5.44c6.14,0,11.13,6.4,11.13,14.21v1.22c0,6.53-.7,10.24-4.74,15.17-4.79,5.76-10.08,11.71-15.38,16.64h19.37v8.13h-26.56v-12.09Z"/>
      <path class="cls-2" d="m474.83,365.41c0,11.65-4.94,18.62-14.83,18.62-8.79,0-14.58-5.63-14.58-17.6h7.14c0,5.06,2.1,8.58,7.14,8.58,4.69,0,7.69-3.39,7.69-9.54,0-7.04-3.45-9.34-7.89-9.34-2.7,0-4.64.9-5.79,2.5h-7.29v-29.82h26.36v9.54h-18.47v9.98c1.25-1.09,3.79-1.54,6.04-1.54,8.94,0,14.48,6.78,14.48,18.62Z"/>
    </g>
    <g>
      <path class="cls-3" d="m246.45,328.06h14.08v45.06h22.46l-3.33,10.62h-33.22v-55.68Z"/>
      <path class="cls-3" d="m286.51,337.46l8.47-9.41h32.72v27.97l-8.47,9.41h-19.99v18.3h-12.73v-46.27Zm28.45,17.34v-16.13h-15.73v16.13h15.73Z"/>
    </g>
  </g>
</svg>